<?xml version="1.0" encoding="UTF-8" standalone="no"?>
<!-- Created with Inkscape (http://www.inkscape.org/) -->

<svg
   xmlns:dc="http://purl.org/dc/elements/1.1/"
   xmlns:cc="http://creativecommons.org/ns#"
   xmlns:rdf="http://www.w3.org/1999/02/22-rdf-syntax-ns#"
   xmlns:svg="http://www.w3.org/2000/svg"
   xmlns="http://www.w3.org/2000/svg"
   xmlns:sodipodi="http://sodipodi.sourceforge.net/DTD/sodipodi-0.dtd"
   xmlns:inkscape="http://www.inkscape.org/namespaces/inkscape"
   id="svg2"
   version="1.1"
   inkscape:version="0.91 r13725"
   width="339"
   height="94"
   viewBox="0 0 339 94"
   sodipodi:docname="HarryAinlayLogo.svg">
  <metadata
     id="metadata8">
    <rdf:RDF>
      <cc:Work
         rdf:about="">
        <dc:format>image/svg+xml</dc:format>
        <dc:type
           rdf:resource="http://purl.org/dc/dcmitype/StillImage" />
        <dc:title></dc:title>
      </cc:Work>
    </rdf:RDF>
  </metadata>
  <defs
     id="defs6" />
  <sodipodi:namedview
     pagecolor="#ffffff"
     bordercolor="#898989"
     borderopacity="1"
     objecttolerance="10"
     gridtolerance="10"
     guidetolerance="10"
     inkscape:pageopacity="0"
     inkscape:pageshadow="2"
     inkscape:window-width="1920"
     inkscape:window-height="1137"
     id="namedview4"
     showgrid="false"
     showborder="false"
     showguides="true"
     inkscape:guide-bbox="true"
     inkscape:zoom="0.25"
     inkscape:cx="-231.154"
     inkscape:cy="-374.83409"
     inkscape:window-x="1672"
     inkscape:window-y="-8"
     inkscape:window-maximized="1"
     inkscape:current-layer="svg2" />
  <text
     xml:space="preserve"
     style="font-style:normal;font-variant:normal;font-weight:normal;font-stretch:normal;font-size:289.44396973px;line-height:100%;font-family:Constantia;-inkscape-font-specification:'Constantia, Normal';text-align:end;letter-spacing:0px;word-spacing:0px;writing-mode:lr-tb;text-anchor:end;fill:#000000;fill-opacity:1;stroke:none;stroke-width:1px;stroke-linecap:butt;stroke-linejoin:miter;stroke-opacity:1"
     x="1449.1046"
     y="250.55093"
     id="text4153"
     sodipodi:linespacing="100%"><tspan
       sodipodi:role="line"
       id="tspan4155"
       x="1449.1046"
       y="250.55093"
       style="font-style:normal;font-variant:normal;font-weight:normal;font-stretch:normal;font-size:357.84301758px;line-height:100%;font-family:Constantia;-inkscape-font-specification:'Constantia, Normal';text-align:end;writing-mode:lr-tb;text-anchor:end;fill:#ffffff">HARRY AINLAY</tspan><tspan
       sodipodi:role="line"
       x="1449.1046"
       y="558.86133"
       style="font-style:normal;font-variant:normal;font-weight:normal;font-stretch:normal;font-size:277.32836914px;line-height:100%;font-family:Constantia;-inkscape-font-specification:'Constantia, Normal';text-align:end;writing-mode:lr-tb;text-anchor:end;fill:#ffffff"
       id="tspan4163">MATH CLUB</tspan><tspan
       sodipodi:role="line"
       x="1449.1046"
       y="836.1897"
       id="tspan4157"
       style="font-style:normal;font-variant:normal;font-weight:normal;font-stretch:normal;font-size:289.44396973px;line-height:125%;font-family:Constantia;-inkscape-font-specification:'Constantia, Normal';text-align:end;writing-mode:lr-tb;text-anchor:end;fill:#ffffff" /></text>
  <g
     id="g4276">
    <path
       id="path4200"
       d="m -1431.9077,776.28906 c 269.2462,-108.88932 269.2462,-376.15267 269.2462,-376.15267 l 0,-643.42148 c -132.6457,-55.4279 -269.2462,-55.4279 -269.2462,-55.4279 0,0 -136.6006,0 -269.2463,55.4279 l 0,643.42148 c 0,0 0,267.26335 269.2463,376.15267 z"
       inkscape:connector-curvature="0"
       style="fill:#231f20" />
    <path
       id="path4202"
       d="m -1431.9077,762.3869 c 262.5197,-106.17244 254.5936,-366.7531 254.5936,-366.7531 l 0,-627.33924 c -129.3263,-54.04753 -254.5936,-54.04753 -254.5936,-54.04753 0,0 -125.2674,0 -254.5991,54.04753 l 0,627.33924 c 0,0 -7.9152,260.58066 254.5991,366.7531 z"
       inkscape:connector-curvature="0"
       style="fill:#ffffff" />
    <path
       id="path4204"
       d="m -1431.8529,746.54018 c 255.3002,-103.25287 239.6781,-356.66334 239.6781,-356.66334 l 0,-610.08478 c -125.7713,-52.56311 -239.6781,-52.56311 -239.6781,-52.56311 0,0 -113.9069,0 -239.6782,52.56311 l 0,610.08478 c 0,0 -15.6221,253.41595 239.6782,356.66334 z"
       inkscape:connector-curvature="0"
       style="fill:#00539e" />
    <circle
       id="circle4206"
       r="194.58098"
       cy="137.81932"
       cx="-1432.8937"
       style="fill:#ffffff" />
    <path
       id="path4208"
       d="m -1432.8937,157.6154 23.2689,0 11.8754,33.65441 -25.2517,0 0,35.6373 83.15,0 0,-35.6373 -13.8528,0 -11.7659,-33.69276 60.889,0.10408 c -4.2068,42.56647 -28.9491,79.09663 -64.192,99.54453 l 22.5622,38.97316 c 52.1359,-30.21447 87.2035,-86.61738 87.2035,-151.20383 l 0.3232,-6.18421 -0.3232,-6.1897 c 0,-64.591927 -35.0676,-120.994834 -87.2035,-151.20383 l -22.5622,38.973166 c 35.2429,20.442424 59.9852,56.978055 64.192,99.544534 l -74.0079,0.11503 -32.526,-93.097393 -21.779,0 -21.7844,0 -32.5206,93.097393 -74.0243,-0.11503 c 4.2122,-42.566479 28.9546,-79.10211 64.1975,-99.544534 l -22.5623,-38.973166 c -52.1303,30.208996 -87.2034,86.611903 -87.2034,151.20383 l -0.3232,6.1897 0.3232,6.18421 c 0,64.59193 35.0731,120.99484 87.2034,151.20383 l 22.5623,-38.97316 c -35.2429,-20.44243 -59.9853,-56.97806 -64.1975,-99.54453 l 60.9055,-0.10408 -11.7659,33.69276 -13.8584,0 0,35.6373 83.1501,0 0,-35.6373 -25.2354,0 11.8755,-33.65441 23.2579,0 z"
       inkscape:connector-curvature="0"
       style="fill:#231f20" />
    <polygon
       transform="matrix(5.4776058,0,0,5.4776058,-1747.4945,-330.92131)"
       id="polygon4210"
       points="49.398,117.825 46.506,170.954 57.35,196.977 68.191,170.954 65.301,117.825 57.35,117.825 "
       style="fill:#ffffff" />
    <polygon
       transform="matrix(5.4776058,0,0,5.4776058,-1747.4945,-330.92131)"
       id="polygon4212"
       points="56.461,191.109 56.461,120.09 50.678,120.09 47.967,170.689 "
       style="fill:#231f20" />
    <polygon
       transform="matrix(5.4776058,0,0,5.4776058,-1747.4945,-330.92131)"
       id="polygon4214"
       points="58.268,191.109 58.268,120.09 64.051,120.09 66.762,170.689 "
       style="fill:#231f20" />
    <polygon
       transform="matrix(5.4776058,0,0,5.4776058,-1747.4945,-330.92131)"
       id="polygon4216"
       points="98.816,17.987 73.969,43.378 41.439,43.378 16.592,17.987 13.34,19.252 46.952,53.407 68.457,53.407 102.068,19.252 "
       style="fill:#ffffff" />
    <rect
       id="rect4218"
       height="22.397932"
       width="143.33798"
       y="-80.715225"
       x="-1503.9985"
       style="fill:#231f20" />
    <path
       id="path4220"
       d="m -1413.9302,-199.15202 8.7477,114.251897 -53.4505,0 8.945,-114.399797 c -12.8614,-6.6279 -21.6256,-20.10281 -21.6256,-35.56609 0,-22.03641 17.8679,-39.89889 39.8989,-39.89889 22.0309,0 39.8988,17.86248 39.8988,39.89889 0,15.69334 -9.2297,29.19563 -22.4143,35.71399 z"
       inkscape:connector-curvature="0"
       style="fill:#ffffff" />
    <path
       id="path4222"
       d="m -1442.7972,-195.76686 c 0,0 14.3513,1.97741 21.286,0 l 0.6463,0.8545 -21.9323,8.05208 0,-8.90658 z"
       inkscape:connector-curvature="0"
       style="fill:#231f20" />
    <polygon
       transform="matrix(5.4776058,0,0,5.4776058,-1747.4945,-330.92131)"
       id="polygon4224"
       points="55.084,32.444 55.445,28.287 59.691,26.661 59.963,30.637 "
       style="fill:#231f20" />
    <polygon
       transform="matrix(5.4776058,0,0,5.4776058,-1747.4945,-330.92131)"
       id="polygon4226"
       points="54.542,38.949 54.994,34.433 60.145,32.534 60.505,36.781 "
       style="fill:#231f20" />
    <polygon
       transform="matrix(5.4776058,0,0,5.4776058,-1747.4945,-330.92131)"
       id="polygon4228"
       points="60.686,38.588 60.867,43.106 56.173,44.75 54.09,44.732 54.542,40.938 "
       style="fill:#231f20" />
    <polygon
       transform="matrix(5.4776058,0,0,5.4776058,-1747.4945,-330.92131)"
       id="polygon4230"
       points="57.434,76.99 55.807,82.321 57.434,82.321 59.061,82.321 "
       style="fill:#ffffff" />
    <circle
       id="circle4232"
       r="30.137787"
       cy="-233.46375"
       cx="-1431.2887"
       style="fill:#231f20" />
  </g>
</svg>
